<?xml version="1.0" encoding="UTF-8" standalone="no"?>
<svg
   version="1.1"
   id="Layer_1"
   x="0px"
   y="0px"
   width="100%"
   viewBox="0 0 642 642"
   enable-background="new 0 0 642 642"
   xml:space="preserve"
   sodipodi:docname="barbermanager.svg"
   inkscape:version="1.3.2 (091e20e, 2023-11-25, custom)"
   xmlns:inkscape="http://www.inkscape.org/namespaces/inkscape"
   xmlns:sodipodi="http://sodipodi.sourceforge.net/DTD/sodipodi-0.dtd"
   xmlns="http://www.w3.org/2000/svg"
   xmlns:svg="http://www.w3.org/2000/svg"><defs
   id="defs17"><inkscape:path-effect
     effect="fillet_chamfer"
     id="path-effect4"
     is_visible="true"
     lpeversion="1"
     nodesatellites_param="F,0,0,1,0,125.93428,0,1 @ F,0,0,1,0,102.09401,0,1 @ F,0,0,1,0,117.87663,0,1 @ F,0,0,1,0,125.90951,0,1"
     radius="0"
     unit="px"
     method="auto"
     mode="F"
     chamfer_steps="1"
     flexible="false"
     use_knot_distance="true"
     apply_no_radius="true"
     apply_with_radius="true"
     only_selected="false"
     hide_knots="false" /><inkscape:path-effect
     effect="fillet_chamfer"
     id="path-effect3"
     is_visible="true"
     lpeversion="1"
     nodesatellites_param="F,0,0,1,0,0,0,1 @ F,0,0,1,0,0,0,1 @ F,0,0,1,0,0,0,1 @ F,0,0,1,0,0,0,1"
     radius="0"
     unit="px"
     method="auto"
     mode="F"
     chamfer_steps="1"
     flexible="false"
     use_knot_distance="true"
     apply_no_radius="true"
     apply_with_radius="true"
     only_selected="false"
     hide_knots="false" /></defs><sodipodi:namedview
   id="namedview17"
   pagecolor="#505050"
   bordercolor="#eeeeee"
   borderopacity="1"
   inkscape:showpageshadow="0"
   inkscape:pageopacity="0"
   inkscape:pagecheckerboard="0"
   inkscape:deskcolor="#505050"
   inkscape:zoom="1"
   inkscape:cx="317"
   inkscape:cy="410"
   inkscape:window-width="2560"
   inkscape:window-height="1352"
   inkscape:window-x="-9"
   inkscape:window-y="-9"
   inkscape:window-maximized="1"
   inkscape:current-layer="Layer_1" />






<rect
   style="fill:#f9f7f3;fill-opacity:1"
   id="rect4"
   width="642.00208"
   height="641.99438"
   x="0"
   y="0.0038307309"
   ry="139" /><path
   fill="#010101"
   opacity="1"
   stroke="none"
   d="m 352.12061,96.933306 c 17.83338,1.08e-4 35.12491,1.08e-4 52.93236,1.08e-4 0,8.307346 -0.0224,16.199696 0.005,24.091866 0.0481,13.88323 5.59443,24.98641 18.36466,30.78715 12.99496,5.90285 26.54636,5.61981 37.96103,-3.72211 8.33025,-6.81755 11.87044,-16.73499 11.80646,-27.68969 -0.045,-7.70701 -0.009,-15.41452 -0.009,-22.397342 14.64591,0 28.74091,-1.200345 42.54756,0.283092 20.39,2.19079 38.48316,21.7826 41.02215,42.25045 0.61882,4.9884 1.04371,10.03833 1.04609,15.06022 0.0541,113.9395 0.0474,227.87904 0.025,341.81854 -0.005,26.11326 -12.38978,44.3275 -36.90485,53.16394 -5.58335,2.01253 -11.96552,2.51123 -17.98136,2.51797 -120.62043,0.13619 -241.24119,0.0244 -361.86158,0.1735 -18.42152,0.0228 -33.05766,-7.27917 -44.317687,-21.24819 -8.033269,-9.96593 -10.54423,-22.03125 -10.537262,-34.71807 0.03457,-62.83826 -0.0117,-125.67651 -0.01864,-188.51476 -0.0054,-52.00407 0.742233,-104.02243 -0.262557,-156.00706 -0.632644,-32.73074 22.513216,-54.996741 52.786486,-56.036413 10.58203,-0.363423 21.18701,-0.05798 32.25528,-0.05798 0,8.690363 0.13914,16.773573 -0.0265,24.850533 -0.46208,22.51928 16.30675,35.177 37.67298,33.43681 16.68199,-1.35868 29.64981,-14.22756 29.51274,-33.26071 -0.0583,-8.09414 -0.01,-16.18904 -0.01,-24.781967 38.1062,0 75.77774,0 113.99114,1.09e-4 m -48.22232,83.432358 c -55.79785,-0.0142 -111.59571,-0.0375 -167.39357,-0.0363 -13.91971,2.9e-4 -22.77727,8.61598 -22.77839,22.13472 -0.009,99.13607 -0.0135,198.27214 0.008,297.40822 0.003,15.29524 10.80363,25.99183 25.92132,25.98934 120.98569,-0.0199 241.97135,-0.0229 362.95704,-0.01 16.74543,0.002 27.22494,-10.29391 27.22481,-26.89635 -7e-4,-98.0526 -10e-4,-196.10522 -0.002,-294.15783 -2.3e-4,-16.21895 -8.22369,-24.46223 -24.41357,-24.46059 -66.8129,0.006 -133.62581,0.0172 -201.52239,0.0285 z"
   id="path7"
   style="display:inline;stroke-width:1.08365" />
<path
   fill="#020202"
   opacity="1"
   stroke="none"
   d="m 433.37528,61.770767 c 15.50014,-1.883229 25.73198,4.314886 29.46552,17.458982 0.43199,1.520844 0.68025,3.147601 0.68766,4.726788 0.0569,12.089825 -0.23232,24.187553 0.11042,36.267963 0.33017,11.63847 -10.93558,24.83432 -22.86691,25.37728 -14.8798,0.67718 -25.8724,-10.34797 -26.09751,-23.78579 -0.20847,-12.4475 -0.38037,-24.910372 0.005,-37.348687 0.34159,-11.020058 7.58672,-19.433062 18.6956,-22.696536 z"
   id="path8"
   style="display:inline;stroke-width:1.08365" />
<path
   fill="#020202"
   opacity="1"
   stroke="none"
   d="m 208.45258,61.210044 c 13.54258,3.46942 21.02829,14.451422 20.12325,27.590286 -0.76655,11.128035 -0.14522,22.35069 -0.16496,33.53144 -0.0162,9.19337 -7.27978,19.15761 -16.02725,22.04562 -9.4021,3.10414 -19.85494,-0.23658 -26.09395,-7.58147 -4.23354,-4.98402 -5.82372,-10.51564 -5.81552,-16.78772 0.0137,-10.45941 0.6022,-20.958868 -0.10875,-31.369246 -1.17944,-17.271002 11.34939,-29.507187 28.08718,-27.42891 z"
   id="path9"
   style="display:inline;stroke-width:1.08365" />

<path
   fill="#010101"
   opacity="1"
   stroke="none"
   d="m 237.9385,285.86751 c -14.13206,-22.88095 -28.26961,-45.75855 -42.38098,-68.65229 -0.74826,-1.21392 -1.59756,-2.5114 -1.8199,-3.86522 -0.25443,-1.54923 -0.45359,-3.99282 0.39158,-4.62944 1.26211,-0.95068 3.68355,-1.28718 5.20047,-0.74149 1.91445,0.68867 3.59125,2.35802 5.06835,3.8948 24.24964,25.22994 48.66358,50.30722 72.58176,75.84842 13.53114,14.4493 26.28215,29.63259 39.28918,44.56828 12.12793,13.92626 27.65422,23.2285 43.49413,32.05317 7.73633,4.31005 15.90703,7.83643 23.68728,12.07353 3.48617,1.89857 6.04515,1.92532 9.54643,-0.2846 23.96136,-15.12377 58.50049,-3.39622 65.70101,25.61647 3.79684,15.29847 -6.47049,32.64392 -23.36467,38.4181 -24.44962,8.35649 -52.0414,-7.61195 -57.00665,-33.11244 -0.50776,-2.60796 -0.8972,-5.72275 0.0535,-8.02676 1.79482,-4.34986 -0.55246,-5.73851 -3.62417,-7.30922 -9.17852,-4.69346 -18.23687,-9.6288 -27.49294,-14.16179 -8.99115,-4.4033 -18.16877,-8.42577 -28.61743,-11.84213 8.58527,16.45237 17.08487,32.95086 25.88569,49.28708 0.90021,1.67094 3.46491,2.8622 5.49556,3.44318 22.54202,6.44947 36.49893,25.51226 34.48326,48.5882 -1.22432,14.01648 -8.55435,24.74514 -21.70812,30.17474 -13.20214,5.44949 -25.59471,2.43788 -36.55248,-6.40422 -11.14474,-8.99303 -16.72632,-21.14685 -17.25454,-35.0912 -0.50009,-13.20155 4.6806,-24.51602 15.66806,-32.4763 2.17864,-1.57844 3.04706,-2.63329 1.60891,-5.09309 -6.9775,-11.93407 -13.33745,-24.26921 -20.92852,-35.79556 -13.16426,-19.98864 -32.06611,-34.11602 -50.81295,-48.49647 -23.35658,-17.91662 -46.05864,-36.69077 -68.91864,-55.24826 -8.10298,-6.57791 -15.90948,-13.52869 -23.70028,-20.47864 -2.24617,-2.00373 -5.79312,-4.1152 -2.71416,-7.96189 2.67811,-3.34586 5.81195,-1.78056 8.70149,-0.20017 15.14792,8.28514 30.22886,16.69356 45.41516,24.90743 7.52226,4.06859 15.22088,7.81123 23.38953,12.02124 0.77824,-0.12785 1.00666,-0.57565 1.23507,-1.02346 m 131.51266,168.29097 c -1.82293,-3.641 -3.19733,-7.60518 -5.54695,-10.86679 -9.8632,-13.69173 -27.02701,-14.12104 -36.85221,-1.15247 -6.43129,8.48888 -5.41458,21.95288 2.48591,32.92199 6.24883,8.67598 19.60367,12.34606 28.73516,7.89679 9.92595,-4.83647 14.78133,-16.8878 11.17809,-28.79952 m 24.18499,-55.79231 c 0.12007,3.53925 -0.47839,7.28919 0.48679,10.58061 3.82954,13.05919 18.67822,21.78035 32.03895,19.27885 13.19084,-2.46965 22.23169,-15.02079 17.64922,-25.94221 -2.16545,-5.16085 -6.37871,-10.0244 -10.82643,-13.56093 -13.66797,-10.86795 -33.1456,-6.10077 -39.34853,9.64368 m -94.414,-65.55484 c -5.95571,-2.63801 -10.68478,1.09309 -10.76545,4.15369 -0.066,2.50353 0.71088,5.47366 2.65373,6.86404 1.62705,1.16433 6.52184,1.36072 8.45504,0.10045 3.55472,-2.3174 3.16002,-9.17153 -0.34337,-11.11817 z"
   id="path11"
   sodipodi:nodetypes="csssscssssssssssscssssssssssssscscccssssccssssccssscc"
   style="display:inline;stroke-width:1.08365" />
<path
   fill="#010101"
   opacity="1"
   stroke="none"
   d="m 433.67443,268.78123 c 6.14822,6.13943 12.00725,12.0264 17.91265,17.86641 2.76705,2.7364 3.9431,5.95655 1.12188,8.96171 -3.08937,3.29076 -6.43273,2.00046 -9.37556,-0.84531 -9.60047,-9.28369 -19.21023,-18.55808 -28.86754,-27.78247 -2.27322,-2.17126 -4.64793,-5.38327 -8.03767,-1.71278 -2.99315,3.24106 -0.88899,5.80163 1.59641,8.25594 8.99316,8.88072 17.92908,17.81945 26.87333,26.74961 1.01631,1.01476 2.67366,2.04973 2.77361,3.18613 0.22778,2.59043 0.61054,6.33047 -0.82703,7.57742 -1.44232,1.25112 -5.78194,1.04211 -7.50692,-0.28073 -4.40152,-3.37528 -7.98432,-7.80012 -12.02187,-11.67239 -5.72549,-5.49115 -11.5528,-10.87654 -17.37059,-16.27047 -0.77914,-0.72236 -1.73107,-1.69326 -2.64751,-1.74387 -2.03775,-0.11257 -4.10372,0.28517 -6.15818,0.47493 0.24935,2.04407 -0.26744,4.81351 0.87094,6.01581 8.06667,8.52004 16.47286,16.71852 24.7698,25.02057 1.27621,1.27698 2.65985,2.46712 3.79723,3.85812 2.44806,2.99375 5.07315,6.30759 1.11063,9.77425 -3.54642,3.10265 -7.03481,1.56594 -10.00684,-1.39113 -6.90857,-6.87382 -13.74585,-13.81987 -20.7001,-20.64693 -2.69484,-2.64563 -5.64017,-5.03492 -8.44767,-7.56728 -2.32465,-2.09686 -5.03327,-2.02939 -6.45492,0.38765 -0.81072,1.37833 -0.34013,4.64829 0.81697,5.86432 8.58378,9.02108 17.5705,17.65761 26.21894,26.61919 1.89026,1.95872 3.65238,4.58552 4.20228,7.17463 0.99696,4.69416 -2.96694,7.6318 -7.34138,5.67347 -1.88266,-0.84276 -3.47731,-2.46102 -5.01226,-3.92657 -8.99806,-8.59136 -17.95432,-17.2267 -26.89083,-25.88211 -2.3934,-2.31813 -4.90396,-3.36947 -7.34822,-0.3859 -2.43642,2.97387 -0.50319,5.41393 1.63013,7.49435 7.49364,7.30797 15.10068,14.5 22.56418,21.83826 2.04088,2.00663 3.7272,4.37338 5.58075,6.57109 2.16187,2.56335 2.45884,5.27785 0.0114,7.68626 -2.34372,2.30629 -5.22381,3.15037 -8.21072,1.08083 -1.46121,-1.01244 -2.75637,-2.2905 -4.02495,-3.55072 -7.8147,-7.76331 -15.51273,-15.64637 -23.42728,-23.30598 -5.08161,-4.91791 -6.55489,-4.73612 -11.39297,0.34077 -0.87118,0.91415 -1.7399,1.83381 -2.55785,2.79509 -3.0136,3.54182 -5.96791,3.90422 -9.47977,0.43527 -5.49886,-5.43159 -11.24839,-10.6094 -15.6333,-14.71611 17.54182,-18.24017 34.15904,-35.74781 51.03741,-52.99997 14.64904,-14.97344 29.67922,-29.57337 44.38021,-44.49672 11.24751,-11.41766 28.51469,-13.99942 41.10566,-0.14322 8.4918,9.34505 17.83113,17.91696 26.70409,26.92066 2.26419,2.29755 4.36901,4.79912 6.24017,7.42555 2.57339,3.61218 1.11122,6.73451 -1.69847,9.53123 -2.98234,2.96848 -5.83542,2.12149 -8.477,-0.38101 -8.37961,-7.93829 -16.67056,-15.97034 -25.05592,-23.90255 -2.48124,-2.34713 -5.26132,-4.38018 -7.72119,-6.74758 -2.26091,-2.17592 -4.51372,-2.36355 -6.54443,-0.11427 -2.25825,2.50123 -1.34713,4.95666 0.87811,7.08047 4.70044,4.48629 9.44977,8.92266 14.09184,13.46855 5.54737,5.43246 11.00145,10.96012 16.50011,16.44241 2.6774,2.6694 4.04413,5.47125 1.03705,8.81972 -2.95396,3.28936 -6.09151,2.70124 -8.93109,0.0968 -5.05006,-4.63195 -9.86142,-9.52292 -14.83797,-14.23659 -5.3674,-5.08392 -10.64532,-10.2879 -16.33619,-14.98667 -1.40482,-1.15995 -4.25846,-0.56519 -6.44609,-0.77708 0.0662,2.40888 -0.81406,5.55737 0.37975,7.08515 3.30934,4.23521 7.48271,7.79529 11.58482,11.8938 z"
   id="path12"
   style="display:inline;stroke-width:1.08365" />
<path
   fill="#010101"
   opacity="1"
   stroke="none"
   d="m 253.69034,428.52111 c -12.53681,15.06093 -24.93386,29.73977 -37.15103,44.56689 -4.40783,5.34952 -13.76425,8.22343 -21.00692,5.92047 -7.02307,-2.23313 -12.99816,-9.57354 -13.58618,-16.32712 -0.66464,-7.63351 1.74589,-13.87384 7.18832,-19.33718 26.8632,-26.96637 53.597,-54.06173 80.36414,-81.12374 0.74077,-0.74894 1.34255,-1.63535 1.25511,-1.52749 7.75161,6.85022 15.14265,13.38183 22.90848,20.24461 -13.68022,16.26032 -26.72065,31.76023 -39.97192,47.58356 z"
   id="path13"
   style="display:inline;stroke-width:1.08365" />




</svg>
